<svg xmlns="http://www.w3.org/2000/svg" xmlns:xlink="http://www.w3.org/1999/xlink" width="500" zoomAndPan="magnify" viewBox="0 0 375 374.999991" height="500" preserveAspectRatio="xMidYMid meet" version="1.0"><defs><g/><clipPath id="47ddce688e"><path d="M 58 0.121094 L 84 0.121094 L 84 27 L 58 27 Z M 58 0.121094 " clip-rule="nonzero"/></clipPath><clipPath id="7dc6bf1f27"><path d="M 200 0.121094 L 219 0.121094 L 219 27 L 200 27 Z M 200 0.121094 " clip-rule="nonzero"/></clipPath><clipPath id="a17c278e9d"><rect x="0" width="221" y="0" height="33"/></clipPath><clipPath id="c032f7021e"><path d="M 37.5 171 L 83 171 L 83 227 L 37.5 227 Z M 37.5 171 " clip-rule="nonzero"/></clipPath><clipPath id="2b7251f55a"><path d="M 37.5 123 L 83 123 L 83 189 L 37.5 189 Z M 37.5 123 " clip-rule="nonzero"/></clipPath><clipPath id="26452f0c5b"><path d="M 70 251 L 96 251 L 96 262.5 L 70 262.5 Z M 70 251 " clip-rule="nonzero"/></clipPath></defs><g transform="matrix(1, 0, 0, 1, 134, 171)"><g clip-path="url(#a17c278e9d)"><g fill="#00429b" fill-opacity="1"><g transform="translate(1.153354, 25.52728)"><g><path d="M 17.359375 -12.78125 C 18.421875 -12.226562 19.242188 -11.445312 19.828125 -10.4375 C 20.421875 -9.4375 20.71875 -8.289062 20.71875 -7 C 20.71875 -5.707031 20.375 -4.53125 19.6875 -3.46875 C 19.007812 -2.40625 18.085938 -1.5625 16.921875 -0.9375 C 15.753906 -0.3125 14.476562 0 13.09375 0 L 2.765625 0 L 2.765625 -24.25 L 12.8125 -24.25 C 14.195312 -24.25 15.4375 -23.976562 16.53125 -23.4375 C 17.632812 -22.894531 18.503906 -22.148438 19.140625 -21.203125 C 19.773438 -20.253906 20.09375 -19.191406 20.09375 -18.015625 C 20.09375 -16.972656 19.847656 -15.988281 19.359375 -15.0625 C 18.878906 -14.144531 18.210938 -13.382812 17.359375 -12.78125 Z M 15 -17.1875 C 15 -17.945312 14.753906 -18.566406 14.265625 -19.046875 C 13.785156 -19.535156 13.128906 -19.78125 12.296875 -19.78125 L 7.9375 -19.78125 L 7.9375 -14.625 L 12.296875 -14.625 C 13.128906 -14.625 13.785156 -14.863281 14.265625 -15.34375 C 14.753906 -15.832031 15 -16.445312 15 -17.1875 Z M 12.578125 -4.8125 C 13.453125 -4.8125 14.148438 -5.066406 14.671875 -5.578125 C 15.191406 -6.085938 15.453125 -6.742188 15.453125 -7.546875 C 15.453125 -8.335938 15.191406 -8.984375 14.671875 -9.484375 C 14.148438 -9.992188 13.453125 -10.25 12.578125 -10.25 L 7.9375 -10.25 L 7.9375 -4.8125 Z M 12.578125 -4.8125 "/></g></g></g><g fill="#00429b" fill-opacity="1"><g transform="translate(23.393729, 25.52728)"><g><path d="M 16.109375 0 L 11.390625 -8.28125 L 8.03125 -8.28125 L 8.03125 0 L 2.765625 0 L 2.765625 -24.25 L 12.578125 -24.25 C 14.191406 -24.25 15.632812 -23.898438 16.90625 -23.203125 C 18.175781 -22.515625 19.179688 -21.566406 19.921875 -20.359375 C 20.660156 -19.160156 21.03125 -17.78125 21.03125 -16.21875 C 21.03125 -14.644531 20.628906 -13.238281 19.828125 -12 C 19.035156 -10.769531 17.96875 -9.832031 16.625 -9.1875 L 22 0 Z M 8.03125 -19.40625 L 8.03125 -13.125 L 12.234375 -13.125 C 13.316406 -13.125 14.171875 -13.414062 14.796875 -14 C 15.421875 -14.59375 15.734375 -15.34375 15.734375 -16.25 C 15.734375 -17.164062 15.421875 -17.921875 14.796875 -18.515625 C 14.171875 -19.109375 13.316406 -19.40625 12.234375 -19.40625 Z M 8.03125 -19.40625 "/></g></g></g><g fill="#00429b" fill-opacity="1"><g transform="translate(46.292308, 25.52728)"><g><path d="M 2.765625 0 L 2.765625 -24.25 L 8.03125 -24.25 L 8.03125 0 Z M 2.765625 0 "/></g></g></g><g clip-path="url(#47ddce688e)"><g fill="#00429b" fill-opacity="1"><g transform="translate(57.100717, 25.52728)"><g><path d="M 13.40625 -12.671875 L 26.328125 -12.671875 C 26.304688 -10.753906 25.992188 -8.992188 25.390625 -7.390625 C 24.785156 -5.785156 23.9375 -4.394531 22.84375 -3.21875 C 21.75 -2.039062 20.441406 -1.125 18.921875 -0.46875 C 17.410156 0.1875 15.742188 0.515625 13.921875 0.515625 C 12.148438 0.515625 10.5 0.207031 8.96875 -0.40625 C 7.445312 -1.03125 6.113281 -1.910156 4.96875 -3.046875 C 3.820312 -4.179688 2.9375 -5.519531 2.3125 -7.0625 C 1.695312 -8.613281 1.390625 -10.289062 1.390625 -12.09375 C 1.390625 -13.914062 1.691406 -15.59375 2.296875 -17.125 C 2.910156 -18.664062 3.773438 -20.003906 4.890625 -21.140625 C 6.015625 -22.285156 7.335938 -23.175781 8.859375 -23.8125 C 10.390625 -24.445312 12.046875 -24.765625 13.828125 -24.765625 C 15.828125 -24.765625 17.679688 -24.367188 19.390625 -23.578125 C 21.109375 -22.796875 22.539062 -21.710938 23.6875 -20.328125 C 24.84375 -18.941406 25.609375 -17.335938 25.984375 -15.515625 L 20.578125 -15.515625 C 20.066406 -16.835938 19.210938 -17.878906 18.015625 -18.640625 C 16.816406 -19.398438 15.453125 -19.78125 13.921875 -19.78125 C 12.492188 -19.78125 11.234375 -19.453125 10.140625 -18.796875 C 9.054688 -18.140625 8.207031 -17.238281 7.59375 -16.09375 C 6.988281 -14.945312 6.6875 -13.613281 6.6875 -12.09375 C 6.6875 -10.59375 6.984375 -9.269531 7.578125 -8.125 C 8.179688 -6.976562 9.023438 -6.082031 10.109375 -5.4375 C 11.203125 -4.789062 12.472656 -4.46875 13.921875 -4.46875 C 15.492188 -4.46875 16.898438 -4.847656 18.140625 -5.609375 C 19.390625 -6.367188 20.238281 -7.375 20.6875 -8.625 L 13.40625 -8.625 Z M 13.40625 -12.671875 "/></g></g></g></g><g fill="#00429b" fill-opacity="1"><g transform="translate(84.710649, 25.52728)"><g><path d="M 17.140625 -24.25 L 22.375 -24.25 L 22.375 0 L 17.140625 0 L 17.140625 -10.015625 L 8.03125 -10.015625 L 8.03125 0 L 2.765625 0 L 2.765625 -24.25 L 8.03125 -24.25 L 8.03125 -14.890625 L 17.140625 -14.890625 Z M 17.140625 -24.25 "/></g></g></g><g fill="#00429b" fill-opacity="1"><g transform="translate(109.895622, 25.52728)"><g><path d="M 19.5 -24.25 L 19.5 -19.359375 L 12.75 -19.359375 L 12.75 0 L 7.484375 0 L 7.484375 -19.359375 L 0.765625 -19.359375 L 0.765625 -24.25 Z M 19.5 -24.25 "/></g></g></g><g fill="#00429b" fill-opacity="1"><g transform="translate(130.126738, 25.52728)"><g><path d="M 2.109375 -7.28125 L 2.109375 -12.15625 L 13.4375 -12.15625 L 13.4375 -7.28125 Z M 2.109375 -7.28125 "/></g></g></g><g fill="#00429b" fill-opacity="1"><g transform="translate(145.681138, 25.52728)"><g><path d="M 17.359375 -12.78125 C 18.421875 -12.226562 19.242188 -11.445312 19.828125 -10.4375 C 20.421875 -9.4375 20.71875 -8.289062 20.71875 -7 C 20.71875 -5.707031 20.375 -4.53125 19.6875 -3.46875 C 19.007812 -2.40625 18.085938 -1.5625 16.921875 -0.9375 C 15.753906 -0.3125 14.476562 0 13.09375 0 L 2.765625 0 L 2.765625 -24.25 L 12.8125 -24.25 C 14.195312 -24.25 15.4375 -23.976562 16.53125 -23.4375 C 17.632812 -22.894531 18.503906 -22.148438 19.140625 -21.203125 C 19.773438 -20.253906 20.09375 -19.191406 20.09375 -18.015625 C 20.09375 -16.972656 19.847656 -15.988281 19.359375 -15.0625 C 18.878906 -14.144531 18.210938 -13.382812 17.359375 -12.78125 Z M 15 -17.1875 C 15 -17.945312 14.753906 -18.566406 14.265625 -19.046875 C 13.785156 -19.535156 13.128906 -19.78125 12.296875 -19.78125 L 7.9375 -19.78125 L 7.9375 -14.625 L 12.296875 -14.625 C 13.128906 -14.625 13.785156 -14.863281 14.265625 -15.34375 C 14.753906 -15.832031 15 -16.445312 15 -17.1875 Z M 12.578125 -4.8125 C 13.453125 -4.8125 14.148438 -5.066406 14.671875 -5.578125 C 15.191406 -6.085938 15.453125 -6.742188 15.453125 -7.546875 C 15.453125 -8.335938 15.191406 -8.984375 14.671875 -9.484375 C 14.148438 -9.992188 13.453125 -10.25 12.578125 -10.25 L 7.9375 -10.25 L 7.9375 -4.8125 Z M 12.578125 -4.8125 "/></g></g></g><g fill="#00429b" fill-opacity="1"><g transform="translate(167.921522, 25.52728)"><g><path d="M 2.765625 0 L 2.765625 -24.25 L 8.03125 -24.25 L 8.03125 0 Z M 2.765625 0 "/></g></g></g><g fill="#00429b" fill-opacity="1"><g transform="translate(178.729931, 25.52728)"><g><path d="M 19.5 -24.25 L 19.5 -19.359375 L 12.75 -19.359375 L 12.75 0 L 7.484375 0 L 7.484375 -19.359375 L 0.765625 -19.359375 L 0.765625 -24.25 Z M 19.5 -24.25 "/></g></g></g><g clip-path="url(#7dc6bf1f27)"><g fill="#00429b" fill-opacity="1"><g transform="translate(198.961028, 25.52728)"><g><path d="M 10.8125 0.484375 C 8.957031 0.484375 7.328125 0.148438 5.921875 -0.515625 C 4.515625 -1.191406 3.410156 -2.148438 2.609375 -3.390625 C 1.816406 -4.640625 1.421875 -6.128906 1.421875 -7.859375 L 6.71875 -7.859375 C 6.71875 -6.679688 7.128906 -5.8125 7.953125 -5.25 C 8.773438 -4.6875 9.710938 -4.40625 10.765625 -4.40625 C 11.441406 -4.40625 12.070312 -4.515625 12.65625 -4.734375 C 13.25 -4.953125 13.734375 -5.273438 14.109375 -5.703125 C 14.492188 -6.128906 14.6875 -6.640625 14.6875 -7.234375 C 14.6875 -7.859375 14.46875 -8.347656 14.03125 -8.703125 C 13.59375 -9.066406 13.003906 -9.363281 12.265625 -9.59375 C 11.523438 -9.820312 10.71875 -10.039062 9.84375 -10.25 C 8.9375 -10.457031 8.007812 -10.710938 7.0625 -11.015625 C 6.113281 -11.316406 5.234375 -11.710938 4.421875 -12.203125 C 3.617188 -12.703125 2.972656 -13.375 2.484375 -14.21875 C 2.003906 -15.0625 1.765625 -16.128906 1.765625 -17.421875 C 1.765625 -19.753906 2.554688 -21.550781 4.140625 -22.8125 C 5.722656 -24.070312 7.863281 -24.703125 10.5625 -24.703125 C 13.332031 -24.703125 15.476562 -24 17 -22.59375 C 18.53125 -21.195312 19.296875 -19.300781 19.296875 -16.90625 L 14.09375 -16.90625 C 14.09375 -17.945312 13.722656 -18.710938 12.984375 -19.203125 C 12.242188 -19.703125 11.390625 -19.953125 10.421875 -19.953125 C 9.566406 -19.953125 8.78125 -19.765625 8.0625 -19.390625 C 7.351562 -19.023438 7 -18.453125 7 -17.671875 C 7 -17.085938 7.210938 -16.628906 7.640625 -16.296875 C 8.066406 -15.960938 8.628906 -15.6875 9.328125 -15.46875 C 10.035156 -15.25 10.816406 -15.035156 11.671875 -14.828125 C 12.597656 -14.597656 13.546875 -14.328125 14.515625 -14.015625 C 15.484375 -13.703125 16.382812 -13.28125 17.21875 -12.75 C 18.050781 -12.21875 18.722656 -11.507812 19.234375 -10.625 C 19.753906 -9.75 20.015625 -8.644531 20.015625 -7.3125 C 20.015625 -5.550781 19.59375 -4.09375 18.75 -2.9375 C 17.914062 -1.789062 16.804688 -0.929688 15.421875 -0.359375 C 14.035156 0.203125 12.5 0.484375 10.8125 0.484375 Z M 10.8125 0.484375 "/></g></g></g></g></g></g><g clip-path="url(#c032f7021e)"><path fill="#56aeff" d="M 44.074219 192.597656 C 40.679688 186.242188 38.609375 179.320312 37.929688 172.246094 L 49.792969 172.375 C 50.734375 175.699219 47.40625 179.476562 47.835938 183.609375 C 48.242188 187.503906 51.1875 189.878906 54.929688 189.980469 C 68.800781 190.339844 59.570312 175.214844 62.410156 172.503906 C 64.484375 171.554688 78.441406 172.097656 81.859375 172.203125 L 81.65625 190.734375 C 77.207031 192.601562 74.582031 189.164062 69.878906 190.867188 C 62.570312 193.519531 63.542969 208.179688 71.664062 208.382812 C 76.1875 208.496094 77.976562 204.75 80.566406 205.855469 C 82.988281 206.894531 81.851562 221.148438 81.859375 226.667969 C 74.785156 226.652344 67.707031 226.332031 60.636719 225.714844 C 62.339844 205.945312 51.953125 205.84375 44.074219 192.597656 Z M 44.074219 192.597656 " fill-opacity="1" fill-rule="evenodd"/></g><g clip-path="url(#2b7251f55a)"><path fill="#fdc500" d="M 37.796875 170.652344 C 37.5 166.140625 37.761719 161.578125 38.605469 157.074219 C 38.914062 155.84375 39.273438 154.636719 39.679688 153.453125 C 40.960938 150.136719 42.996094 145.28125 45.609375 141.914062 C 53.730469 130.527344 66.929688 123.285156 81.519531 123.054688 C 81.855469 146.191406 77.167969 130.011719 69.308594 133.101562 C 63.015625 135.570312 63.152344 150.75 70.8125 152.269531 C 76.632812 153.433594 75.984375 147.628906 81.519531 149.171875 C 82.464844 152.210938 81.863281 166.128906 81.859375 170.640625 L 61.878906 170.882812 C 58.714844 174.148438 61.386719 178.105469 61.617188 182.210938 C 62.113281 191.113281 47.941406 190.554688 49.289062 181.324219 C 49.832031 177.574219 52.703125 174.554688 50.699219 170.664062 Z M 37.796875 170.652344 " fill-opacity="1" fill-rule="evenodd"/></g><path fill="#ffeb5b" d="M 126.84375 172.144531 C 126.101562 180.882812 123.089844 189.371094 117.988281 196.710938 C 108.199219 207.550781 102.953125 209.109375 104.1875 225.714844 C 97.195312 226.324219 90.199219 226.644531 83.207031 226.667969 C 83.253906 223.078125 83.613281 208.871094 83.035156 206.484375 C 81.558594 200.394531 74.335938 208.121094 70.160156 206.574219 C 65.792969 204.953125 65.066406 196.207031 68.554688 193.285156 C 73.339844 189.277344 78.621094 195.308594 83.191406 191.796875 L 83.253906 172.179688 L 95.898438 171.855469 C 103.089844 172.335938 96.246094 178.265625 95.683594 181.914062 C 94.398438 190.230469 103.519531 192.820312 109.964844 190.445312 C 118.480469 187.304688 110.539062 181.652344 111.496094 177.105469 C 112.839844 170.761719 121.261719 171.648438 126.84375 172.144531 Z M 126.84375 172.144531 " fill-opacity="1" fill-rule="evenodd"/><path fill="#003f88" d="M 83.113281 124.230469 C 99.800781 112.503906 122.328125 113.464844 137.957031 126.640625 C 141.363281 129.691406 144.296875 133.160156 146.722656 136.933594 C 143.238281 139.753906 137.175781 142.394531 136.347656 146.28125 C 133.828125 158.023438 150.191406 155.019531 142.285156 163.484375 C 136.652344 169.507812 129.328125 168.378906 128.605469 161.269531 C 128.277344 157.988281 128.484375 155.671875 125.871094 153.519531 C 123.597656 152.328125 116.210938 159.316406 111.191406 162.460938 C 108.777344 159.007812 101.769531 148.488281 99.335938 146.070312 C 97.300781 144.042969 94.3125 144.992188 93.175781 147.792969 C 92.355469 149.8125 92.695312 152.675781 89.265625 153.804688 C 84.878906 155.253906 78.808594 148.824219 78.546875 143.703125 C 78.101562 134.949219 96.695312 143.320312 86.886719 129.386719 C 85.171875 126.953125 83.875 125.382812 83.113281 124.230469 Z M 83.113281 124.230469 " fill-opacity="1" fill-rule="evenodd"/><path fill="#4d4d4d" d="M 63.546875 230.105469 L 102.097656 230.105469 C 102.523438 230.105469 102.929688 230.167969 103.320312 230.296875 C 103.710938 230.421875 104.054688 230.601562 104.355469 230.835938 C 104.652344 231.070312 104.882812 231.339844 105.046875 231.648438 C 105.207031 231.953125 105.289062 232.269531 105.289062 232.601562 C 105.289062 232.933594 105.207031 233.25 105.046875 233.558594 C 104.882812 233.863281 104.652344 234.132812 104.355469 234.367188 C 104.054688 234.601562 103.710938 234.78125 103.320312 234.90625 C 102.929688 235.035156 102.523438 235.097656 102.097656 235.097656 L 63.546875 235.097656 C 63.121094 235.097656 62.714844 235.035156 62.324219 234.90625 C 61.933594 234.78125 61.589844 234.601562 61.289062 234.367188 C 60.992188 234.132812 60.761719 233.863281 60.597656 233.558594 C 60.4375 233.25 60.355469 232.933594 60.355469 232.601562 C 60.355469 232.269531 60.4375 231.953125 60.597656 231.648438 C 60.761719 231.339844 60.992188 231.070312 61.289062 230.835938 C 61.589844 230.601562 61.933594 230.421875 62.324219 230.296875 C 62.714844 230.167969 63.121094 230.105469 63.546875 230.105469 Z M 63.546875 230.105469 " fill-opacity="1" fill-rule="evenodd"/><path fill="#4d4d4d" d="M 65.628906 237.179688 L 100.015625 237.179688 C 100.394531 237.179688 100.757812 237.242188 101.105469 237.371094 C 101.453125 237.496094 101.761719 237.675781 102.027344 237.910156 C 102.296875 238.144531 102.5 238.414062 102.644531 238.71875 C 102.789062 239.027344 102.863281 239.34375 102.863281 239.675781 C 102.863281 240.003906 102.789062 240.324219 102.644531 240.628906 C 102.5 240.9375 102.296875 241.207031 102.027344 241.441406 C 101.761719 241.671875 101.453125 241.855469 101.105469 241.980469 C 100.757812 242.105469 100.394531 242.171875 100.015625 242.171875 L 65.628906 242.171875 C 65.253906 242.171875 64.890625 242.105469 64.542969 241.980469 C 64.195312 241.855469 63.886719 241.671875 63.617188 241.441406 C 63.351562 241.207031 63.148438 240.9375 63.003906 240.628906 C 62.859375 240.324219 62.785156 240.003906 62.785156 239.675781 C 62.785156 239.34375 62.859375 239.027344 63.003906 238.71875 C 63.148438 238.414062 63.351562 238.144531 63.617188 237.910156 C 63.886719 237.675781 64.195312 237.496094 64.542969 237.371094 C 64.890625 237.242188 65.253906 237.179688 65.628906 237.179688 Z M 65.628906 237.179688 " fill-opacity="1" fill-rule="evenodd"/><path fill="#4d4d4d" d="M 68.722656 244.25 L 96.925781 244.25 C 97.234375 244.25 97.53125 244.3125 97.816406 244.4375 C 98.105469 244.566406 98.355469 244.746094 98.574219 244.980469 C 98.792969 245.214844 98.960938 245.484375 99.082031 245.789062 C 99.199219 246.09375 99.257812 246.414062 99.257812 246.746094 C 99.257812 247.074219 99.199219 247.394531 99.082031 247.699219 C 98.960938 248.003906 98.792969 248.273438 98.574219 248.507812 C 98.355469 248.742188 98.105469 248.921875 97.816406 249.050781 C 97.53125 249.175781 97.234375 249.238281 96.925781 249.238281 L 68.722656 249.238281 C 68.414062 249.238281 68.117188 249.175781 67.832031 249.050781 C 67.542969 248.921875 67.292969 248.742188 67.074219 248.507812 C 66.855469 248.273438 66.6875 248.003906 66.566406 247.699219 C 66.449219 247.394531 66.390625 247.074219 66.390625 246.746094 C 66.390625 246.414062 66.449219 246.09375 66.566406 245.789062 C 66.6875 245.484375 66.855469 245.214844 67.074219 244.980469 C 67.292969 244.746094 67.542969 244.566406 67.832031 244.4375 C 68.117188 244.3125 68.414062 244.25 68.722656 244.25 Z M 68.722656 244.25 " fill-opacity="1" fill-rule="evenodd"/><g clip-path="url(#26452f0c5b)"><path fill="#4d4d4d" d="M 95.617188 251.113281 C 94.867188 257.515625 89.425781 262.488281 82.820312 262.488281 C 76.21875 262.488281 70.78125 257.515625 70.03125 251.113281 Z M 95.617188 251.113281 " fill-opacity="1" fill-rule="evenodd"/></g></svg>