<svg xmlns="http://www.w3.org/2000/svg" xmlns:xlink="http://www.w3.org/1999/xlink" width="500" zoomAndPan="magnify" viewBox="0 0 375 374.999991" height="500" preserveAspectRatio="xMidYMid meet" version="1.0"><defs><clipPath id="3057140b0f"><path d="M 131 338 L 192 338 L 192 365.195312 L 131 365.195312 Z M 131 338 " clip-rule="nonzero"/></clipPath></defs><path fill="#7db1ff" d="M 69.511719 199.585938 C 61.460938 184.519531 56.558594 168.109375 54.945312 151.339844 L 83.070312 151.644531 C 85.304688 159.519531 77.410156 168.480469 78.429688 178.273438 C 79.390625 187.507812 86.371094 193.140625 95.25 193.378906 C 128.128906 194.234375 106.25 158.375 112.976562 151.953125 C 117.894531 149.699219 150.980469 150.984375 159.082031 151.238281 L 158.605469 195.167969 C 148.058594 199.59375 141.832031 191.441406 130.6875 195.484375 C 113.359375 201.769531 115.660156 236.527344 134.917969 237.003906 C 145.636719 237.273438 149.882812 228.390625 156.015625 231.015625 C 161.757812 233.476562 159.066406 267.269531 159.082031 280.347656 C 142.316406 280.316406 125.539062 279.558594 108.773438 278.089844 C 112.816406 231.226562 88.191406 230.988281 69.511719 199.585938 Z M 69.511719 199.585938 " fill-opacity="1" fill-rule="evenodd"/><path fill="#f32450" d="M 54.628906 147.558594 C 53.925781 136.867188 54.546875 126.054688 56.550781 115.367188 C 57.28125 112.453125 58.128906 109.589844 59.089844 106.789062 C 62.128906 98.921875 66.957031 87.414062 73.148438 79.429688 C 92.402344 52.441406 123.6875 35.269531 158.277344 34.722656 C 159.074219 89.570312 147.964844 51.21875 129.328125 58.542969 C 114.414062 64.394531 114.734375 100.375 132.894531 103.984375 C 146.699219 106.738281 145.160156 92.976562 158.277344 96.636719 C 160.519531 103.839844 159.089844 136.839844 159.082031 147.535156 L 111.71875 148.105469 C 104.21875 155.851562 110.554688 165.226562 111.097656 174.960938 C 112.273438 196.0625 78.675781 194.746094 81.871094 172.855469 C 83.164062 163.972656 89.964844 156.808594 85.21875 147.585938 Z M 54.628906 147.558594 " fill-opacity="1" fill-rule="evenodd"/><path fill="#fad02c" d="M 265.726562 151.09375 C 263.96875 171.8125 256.824219 191.933594 244.730469 209.339844 C 221.523438 235.03125 209.085938 238.726562 212.019531 278.089844 C 195.4375 279.542969 178.855469 280.296875 162.277344 280.347656 C 162.386719 271.835938 163.246094 238.167969 161.867188 232.5 C 158.371094 218.070312 141.253906 236.382812 131.347656 232.714844 C 120.996094 228.875 119.28125 208.140625 127.542969 201.21875 C 138.890625 191.710938 151.414062 206.007812 162.242188 197.683594 L 162.386719 151.179688 L 192.363281 150.414062 C 209.410156 151.550781 193.1875 165.609375 191.851562 174.257812 C 188.8125 193.972656 210.429688 200.113281 225.710938 194.480469 C 245.902344 187.03125 227.070312 173.636719 229.347656 162.859375 C 232.53125 147.816406 252.492188 149.921875 265.726562 151.09375 Z M 265.726562 151.09375 " fill-opacity="1" fill-rule="evenodd"/><path fill="#ffa0dc" d="M 162.054688 37.511719 C 201.621094 9.707031 255.023438 11.992188 292.074219 43.226562 C 300.144531 50.457031 307.101562 58.675781 312.851562 67.621094 C 304.597656 74.316406 290.222656 80.574219 288.253906 89.78125 C 282.28125 117.617188 321.074219 110.5 302.328125 130.570312 C 288.984375 144.851562 271.613281 142.175781 269.90625 125.3125 C 269.125 117.542969 269.617188 112.046875 263.425781 106.941406 C 258.03125 104.121094 240.523438 120.683594 228.625 128.140625 C 222.898438 119.953125 206.285156 95.015625 200.515625 89.28125 C 195.691406 84.484375 188.609375 86.726562 185.914062 93.367188 C 183.96875 98.160156 184.769531 104.945312 176.640625 107.621094 C 166.242188 111.050781 151.855469 95.8125 151.234375 83.675781 C 150.171875 62.925781 194.257812 82.765625 171 49.734375 C 166.941406 43.964844 163.863281 40.246094 162.054688 37.511719 Z M 162.054688 37.511719 " fill-opacity="1" fill-rule="evenodd"/><path fill="#444444" d="M 115.667969 288.503906 L 207.066406 288.503906 C 207.5625 288.503906 208.054688 288.542969 208.542969 288.617188 C 209.027344 288.691406 209.5 288.804688 209.960938 288.953125 C 210.417969 289.101562 210.851562 289.285156 211.265625 289.5 C 211.679688 289.714844 212.0625 289.960938 212.410156 290.234375 C 212.761719 290.511719 213.074219 290.808594 213.351562 291.132812 C 213.628906 291.457031 213.859375 291.796875 214.050781 292.15625 C 214.242188 292.515625 214.382812 292.882812 214.480469 293.265625 C 214.578125 293.644531 214.625 294.03125 214.625 294.417969 C 214.625 294.808594 214.578125 295.191406 214.480469 295.574219 C 214.382812 295.953125 214.242188 296.324219 214.050781 296.683594 C 213.859375 297.042969 213.628906 297.382812 213.351562 297.707031 C 213.074219 298.03125 212.761719 298.328125 212.410156 298.601562 C 212.0625 298.878906 211.679688 299.121094 211.265625 299.339844 C 210.851562 299.554688 210.417969 299.738281 209.960938 299.886719 C 209.5 300.035156 209.027344 300.144531 208.542969 300.222656 C 208.054688 300.296875 207.5625 300.335938 207.066406 300.335938 L 115.667969 300.335938 C 115.171875 300.335938 114.679688 300.296875 114.195312 300.222656 C 113.707031 300.144531 113.234375 300.035156 112.777344 299.886719 C 112.316406 299.738281 111.882812 299.554688 111.46875 299.339844 C 111.054688 299.121094 110.675781 298.878906 110.324219 298.601562 C 109.972656 298.328125 109.660156 298.03125 109.382812 297.707031 C 109.109375 297.382812 108.875 297.042969 108.683594 296.683594 C 108.496094 296.324219 108.351562 295.953125 108.253906 295.574219 C 108.15625 295.191406 108.109375 294.808594 108.109375 294.417969 C 108.109375 294.03125 108.15625 293.644531 108.253906 293.265625 C 108.351562 292.882812 108.496094 292.515625 108.683594 292.15625 C 108.875 291.796875 109.109375 291.457031 109.382812 291.132812 C 109.660156 290.808594 109.972656 290.511719 110.324219 290.234375 C 110.675781 289.960938 111.054688 289.714844 111.46875 289.5 C 111.882812 289.285156 112.316406 289.101562 112.777344 288.953125 C 113.234375 288.804688 113.707031 288.691406 114.195312 288.617188 C 114.679688 288.542969 115.171875 288.503906 115.667969 288.503906 Z M 115.667969 288.503906 " fill-opacity="1" fill-rule="evenodd"/><path fill="#444444" d="M 120.613281 305.269531 L 202.132812 305.269531 C 202.574219 305.269531 203.011719 305.308594 203.445312 305.382812 C 203.882812 305.460938 204.304688 305.574219 204.710938 305.722656 C 205.121094 305.871094 205.511719 306.050781 205.878906 306.269531 C 206.246094 306.484375 206.585938 306.730469 206.898438 307.003906 C 207.214844 307.277344 207.492188 307.578125 207.738281 307.898438 C 207.984375 308.222656 208.191406 308.5625 208.363281 308.921875 C 208.53125 309.28125 208.660156 309.652344 208.746094 310.03125 C 208.832031 310.414062 208.875 310.796875 208.875 311.1875 C 208.875 311.574219 208.832031 311.960938 208.746094 312.339844 C 208.660156 312.722656 208.53125 313.09375 208.363281 313.449219 C 208.191406 313.808594 207.984375 314.152344 207.738281 314.472656 C 207.492188 314.796875 207.214844 315.09375 206.898438 315.371094 C 206.585938 315.644531 206.246094 315.890625 205.878906 316.105469 C 205.511719 316.320312 205.121094 316.503906 204.710938 316.652344 C 204.304688 316.800781 203.882812 316.914062 203.445312 316.988281 C 203.011719 317.066406 202.574219 317.101562 202.132812 317.101562 L 120.613281 317.101562 C 120.171875 317.101562 119.730469 317.066406 119.296875 316.988281 C 118.863281 316.914062 118.441406 316.800781 118.03125 316.652344 C 117.621094 316.503906 117.234375 316.320312 116.867188 316.105469 C 116.496094 315.890625 116.15625 315.644531 115.84375 315.371094 C 115.53125 315.09375 115.25 314.796875 115.003906 314.472656 C 114.757812 314.152344 114.550781 313.808594 114.382812 313.449219 C 114.210938 313.09375 114.085938 312.722656 114 312.339844 C 113.910156 311.960938 113.867188 311.574219 113.867188 311.1875 C 113.867188 310.796875 113.910156 310.414062 114 310.03125 C 114.085938 309.652344 114.210938 309.28125 114.382812 308.921875 C 114.550781 308.5625 114.757812 308.222656 115.003906 307.898438 C 115.25 307.578125 115.53125 307.277344 115.84375 307.003906 C 116.15625 306.730469 116.496094 306.484375 116.867188 306.269531 C 117.234375 306.050781 117.621094 305.871094 118.03125 305.722656 C 118.441406 305.574219 118.863281 305.460938 119.296875 305.382812 C 119.730469 305.308594 120.171875 305.269531 120.613281 305.269531 Z M 120.613281 305.269531 " fill-opacity="1" fill-rule="evenodd"/><path fill="#444444" d="M 127.941406 322.03125 L 194.800781 322.03125 C 195.164062 322.03125 195.523438 322.066406 195.878906 322.144531 C 196.234375 322.21875 196.582031 322.332031 196.917969 322.480469 C 197.253906 322.628906 197.570312 322.8125 197.871094 323.027344 C 198.175781 323.242188 198.453125 323.488281 198.710938 323.761719 C 198.96875 324.039062 199.195312 324.335938 199.398438 324.660156 C 199.601562 324.980469 199.769531 325.324219 199.910156 325.683594 C 200.046875 326.039062 200.152344 326.410156 200.222656 326.792969 C 200.296875 327.171875 200.332031 327.558594 200.332031 327.945312 C 200.332031 328.335938 200.296875 328.71875 200.222656 329.101562 C 200.152344 329.480469 200.046875 329.851562 199.910156 330.210938 C 199.769531 330.570312 199.601562 330.910156 199.398438 331.234375 C 199.195312 331.554688 198.96875 331.855469 198.710938 332.128906 C 198.453125 332.402344 198.175781 332.648438 197.871094 332.863281 C 197.570312 333.082031 197.253906 333.261719 196.917969 333.410156 C 196.582031 333.558594 196.234375 333.671875 195.878906 333.75 C 195.523438 333.824219 195.164062 333.863281 194.800781 333.863281 L 127.941406 333.863281 C 127.582031 333.863281 127.21875 333.824219 126.863281 333.75 C 126.507812 333.671875 126.164062 333.558594 125.828125 333.410156 C 125.492188 333.261719 125.171875 333.082031 124.871094 332.863281 C 124.570312 332.648438 124.289062 332.402344 124.035156 332.128906 C 123.777344 331.855469 123.546875 331.554688 123.34375 331.234375 C 123.144531 330.910156 122.972656 330.570312 122.835938 330.210938 C 122.695312 329.851562 122.589844 329.480469 122.519531 329.101562 C 122.449219 328.71875 122.414062 328.335938 122.414062 327.945312 C 122.414062 327.558594 122.449219 327.171875 122.519531 326.792969 C 122.589844 326.410156 122.695312 326.039062 122.835938 325.683594 C 122.972656 325.324219 123.144531 324.980469 123.34375 324.660156 C 123.546875 324.335938 123.777344 324.039062 124.035156 323.761719 C 124.289062 323.488281 124.570312 323.242188 124.871094 323.027344 C 125.171875 322.8125 125.492188 322.628906 125.828125 322.480469 C 126.164062 322.332031 126.507812 322.21875 126.863281 322.144531 C 127.21875 322.066406 127.582031 322.03125 127.941406 322.03125 Z M 127.941406 322.03125 " fill-opacity="1" fill-rule="evenodd"/><g clip-path="url(#3057140b0f)"><path fill="#444444" d="M 191.699219 338.304688 C 189.925781 353.484375 177.023438 365.265625 161.367188 365.265625 C 145.714844 365.265625 132.820312 353.484375 131.042969 338.304688 Z M 191.699219 338.304688 " fill-opacity="1" fill-rule="evenodd"/></g></svg>