<svg xmlns="http://www.w3.org/2000/svg" xmlns:xlink="http://www.w3.org/1999/xlink" width="500" zoomAndPan="magnify" viewBox="0 0 375 374.999991" height="500" preserveAspectRatio="xMidYMid meet" version="1.0"><defs><clipPath id="018ef7d081"><path d="M 135 327 L 192 327 L 192 352.148438 L 135 352.148438 Z M 135 327 " clip-rule="nonzero"/></clipPath></defs><path fill="#56aeff" d="M 78.273438 198.691406 C 70.816406 184.738281 66.28125 169.546875 64.785156 154.023438 L 90.824219 154.308594 C 92.890625 161.597656 85.585938 169.894531 86.53125 178.960938 C 87.417969 187.507812 93.882812 192.722656 102.101562 192.941406 C 132.539062 193.734375 112.28125 160.535156 118.511719 154.589844 C 123.0625 152.507812 153.691406 153.695312 161.195312 153.929688 L 160.753906 194.601562 C 150.988281 198.699219 145.222656 191.148438 134.90625 194.890625 C 118.863281 200.710938 120.996094 232.890625 138.824219 233.328125 C 148.746094 233.582031 152.679688 225.355469 158.355469 227.785156 C 163.671875 230.066406 161.179688 261.347656 161.195312 273.457031 C 145.671875 273.425781 130.140625 272.726562 114.617188 271.367188 C 118.363281 227.980469 95.566406 227.761719 78.273438 198.691406 Z M 78.273438 198.691406 " fill-opacity="1" fill-rule="evenodd"/><path fill="#fdc500" d="M 64.496094 150.523438 C 63.84375 140.625 64.417969 130.613281 66.273438 120.722656 C 66.949219 118.023438 67.734375 115.375 68.625 112.777344 C 71.4375 105.496094 75.90625 94.84375 81.636719 87.449219 C 99.464844 62.46875 128.425781 46.566406 160.449219 46.0625 C 161.1875 96.839844 150.902344 61.335938 133.648438 68.113281 C 119.839844 73.53125 120.140625 106.84375 136.953125 110.183594 C 149.730469 112.730469 148.308594 99.992188 160.449219 103.382812 C 162.523438 110.050781 161.203125 140.601562 161.195312 150.5 L 117.347656 151.027344 C 110.402344 158.199219 116.269531 166.882812 116.773438 175.894531 C 117.859375 195.425781 86.757812 194.207031 89.714844 173.941406 C 90.910156 165.71875 97.207031 159.089844 92.8125 150.546875 Z M 64.496094 150.523438 " fill-opacity="1" fill-rule="evenodd"/><path fill="#ffeb5b" d="M 259.921875 153.796875 C 258.296875 172.976562 251.683594 191.605469 240.484375 207.71875 C 219 231.503906 207.488281 234.925781 210.203125 271.367188 C 194.851562 272.710938 179.5 273.410156 164.152344 273.457031 C 164.253906 265.578125 165.046875 234.40625 163.773438 229.160156 C 160.535156 215.800781 144.6875 232.753906 135.519531 229.359375 C 125.933594 225.804688 124.347656 206.609375 131.996094 200.199219 C 142.503906 191.398438 154.09375 204.636719 164.121094 196.929688 L 164.253906 153.875 L 192.003906 153.167969 C 207.789062 154.222656 192.769531 167.234375 191.535156 175.242188 C 188.71875 193.492188 208.730469 199.175781 222.878906 193.964844 C 241.570312 187.066406 224.136719 174.667969 226.242188 164.6875 C 229.191406 150.761719 247.671875 152.710938 259.921875 153.796875 Z M 259.921875 153.796875 " fill-opacity="1" fill-rule="evenodd"/><path fill="#003f88" d="M 163.949219 48.644531 C 200.578125 22.90625 250.015625 25.019531 284.316406 53.933594 C 291.789062 60.628906 298.226562 68.238281 303.550781 76.519531 C 295.90625 82.714844 282.601562 88.511719 280.777344 97.035156 C 275.25 122.804688 311.164062 116.214844 293.808594 134.796875 C 281.453125 148.015625 265.375 145.539062 263.792969 129.929688 C 263.070312 122.734375 263.523438 117.648438 257.792969 112.921875 C 252.800781 110.308594 236.59375 125.644531 225.574219 132.546875 C 220.273438 124.96875 204.894531 101.878906 199.554688 96.570312 C 195.085938 92.128906 188.53125 94.207031 186.035156 100.355469 C 184.234375 104.789062 184.976562 111.074219 177.449219 113.550781 C 167.824219 116.726562 154.503906 102.621094 153.929688 91.382812 C 152.945312 72.171875 193.757812 90.539062 172.226562 59.957031 C 168.46875 54.621094 165.621094 51.175781 163.949219 48.644531 Z M 163.949219 48.644531 " fill-opacity="1" fill-rule="evenodd"/><path fill="#4d4d4d" d="M 121.003906 281.007812 L 205.617188 281.007812 C 206.078125 281.007812 206.53125 281.042969 206.984375 281.113281 C 207.433594 281.183594 207.871094 281.285156 208.296875 281.421875 C 208.71875 281.5625 209.125 281.730469 209.503906 281.929688 C 209.886719 282.128906 210.242188 282.355469 210.566406 282.609375 C 210.890625 282.863281 211.179688 283.140625 211.4375 283.441406 C 211.691406 283.738281 211.90625 284.054688 212.082031 284.386719 C 212.257812 284.71875 212.390625 285.0625 212.480469 285.414062 C 212.570312 285.769531 212.617188 286.125 212.617188 286.484375 C 212.617188 286.84375 212.570312 287.199219 212.480469 287.550781 C 212.390625 287.90625 212.257812 288.246094 212.082031 288.578125 C 211.90625 288.910156 211.691406 289.226562 211.4375 289.527344 C 211.179688 289.824219 210.890625 290.101562 210.566406 290.355469 C 210.242188 290.609375 209.886719 290.839844 209.503906 291.039062 C 209.125 291.238281 208.71875 291.40625 208.296875 291.542969 C 207.871094 291.679688 207.433594 291.785156 206.984375 291.855469 C 206.53125 291.925781 206.078125 291.960938 205.617188 291.960938 L 121.003906 291.960938 C 120.542969 291.960938 120.089844 291.925781 119.636719 291.855469 C 119.1875 291.785156 118.75 291.679688 118.324219 291.542969 C 117.902344 291.40625 117.496094 291.238281 117.117188 291.039062 C 116.734375 290.839844 116.378906 290.609375 116.054688 290.355469 C 115.730469 290.101562 115.441406 289.824219 115.183594 289.527344 C 114.929688 289.226562 114.714844 288.910156 114.539062 288.578125 C 114.363281 288.246094 114.230469 287.90625 114.140625 287.550781 C 114.050781 287.199219 114.003906 286.84375 114.003906 286.484375 C 114.003906 286.125 114.050781 285.769531 114.140625 285.414062 C 114.230469 285.0625 114.363281 284.71875 114.539062 284.386719 C 114.714844 284.054688 114.929688 283.738281 115.183594 283.441406 C 115.441406 283.140625 115.730469 282.863281 116.054688 282.609375 C 116.378906 282.355469 116.734375 282.128906 117.117188 281.929688 C 117.496094 281.730469 117.902344 281.5625 118.324219 281.421875 C 118.75 281.285156 119.1875 281.183594 119.636719 281.113281 C 120.089844 281.042969 120.542969 281.007812 121.003906 281.007812 Z M 121.003906 281.007812 " fill-opacity="1" fill-rule="evenodd"/><path fill="#4d4d4d" d="M 125.582031 296.53125 L 201.046875 296.53125 C 201.457031 296.53125 201.863281 296.566406 202.265625 296.636719 C 202.667969 296.703125 203.058594 296.808594 203.4375 296.945312 C 203.816406 297.085938 204.175781 297.253906 204.515625 297.453125 C 204.859375 297.652344 205.171875 297.878906 205.464844 298.132812 C 205.753906 298.386719 206.011719 298.664062 206.238281 298.964844 C 206.46875 299.261719 206.660156 299.578125 206.816406 299.910156 C 206.972656 300.242188 207.09375 300.585938 207.171875 300.9375 C 207.253906 301.289062 207.292969 301.648438 207.292969 302.007812 C 207.292969 302.367188 207.253906 302.722656 207.171875 303.074219 C 207.09375 303.429688 206.972656 303.769531 206.816406 304.101562 C 206.660156 304.433594 206.46875 304.75 206.238281 305.050781 C 206.011719 305.347656 205.753906 305.625 205.464844 305.878906 C 205.171875 306.132812 204.859375 306.359375 204.515625 306.5625 C 204.175781 306.761719 203.816406 306.929688 203.4375 307.066406 C 203.058594 307.203125 202.667969 307.308594 202.265625 307.378906 C 201.863281 307.449219 201.457031 307.484375 201.046875 307.484375 L 125.582031 307.484375 C 125.171875 307.484375 124.765625 307.449219 124.363281 307.378906 C 123.960938 307.308594 123.570312 307.203125 123.191406 307.066406 C 122.8125 306.929688 122.453125 306.761719 122.113281 306.5625 C 121.769531 306.359375 121.457031 306.132812 121.164062 305.878906 C 120.875 305.625 120.617188 305.347656 120.390625 305.050781 C 120.160156 304.75 119.96875 304.433594 119.8125 304.101562 C 119.65625 303.769531 119.535156 303.429688 119.457031 303.074219 C 119.375 302.722656 119.335938 302.367188 119.335938 302.007812 C 119.335938 301.648438 119.375 301.289062 119.457031 300.9375 C 119.535156 300.585938 119.65625 300.242188 119.8125 299.910156 C 119.96875 299.578125 120.160156 299.261719 120.390625 298.964844 C 120.617188 298.664062 120.875 298.386719 121.164062 298.132812 C 121.457031 297.878906 121.769531 297.652344 122.113281 297.453125 C 122.453125 297.253906 122.8125 297.085938 123.191406 296.945312 C 123.570312 296.808594 123.960938 296.703125 124.363281 296.636719 C 124.765625 296.566406 125.171875 296.53125 125.582031 296.53125 Z M 125.582031 296.53125 " fill-opacity="1" fill-rule="evenodd"/><path fill="#4d4d4d" d="M 132.367188 312.042969 L 194.261719 312.042969 C 194.597656 312.042969 194.929688 312.078125 195.261719 312.148438 C 195.589844 312.21875 195.910156 312.324219 196.222656 312.460938 C 196.53125 312.597656 196.828125 312.769531 197.105469 312.96875 C 197.386719 313.167969 197.644531 313.394531 197.882812 313.648438 C 198.121094 313.902344 198.332031 314.179688 198.519531 314.480469 C 198.707031 314.777344 198.863281 315.09375 198.992188 315.425781 C 199.121094 315.757812 199.21875 316.101562 199.28125 316.453125 C 199.347656 316.804688 199.382812 317.160156 199.382812 317.523438 C 199.382812 317.882812 199.347656 318.238281 199.28125 318.589844 C 199.21875 318.941406 199.121094 319.285156 198.992188 319.617188 C 198.863281 319.949219 198.707031 320.265625 198.519531 320.566406 C 198.332031 320.863281 198.121094 321.140625 197.882812 321.394531 C 197.644531 321.648438 197.386719 321.875 197.105469 322.074219 C 196.828125 322.277344 196.53125 322.445312 196.222656 322.582031 C 195.910156 322.71875 195.589844 322.824219 195.261719 322.894531 C 194.929688 322.964844 194.597656 323 194.261719 323 L 132.367188 323 C 132.03125 323 131.699219 322.964844 131.367188 322.894531 C 131.039062 322.824219 130.71875 322.71875 130.40625 322.582031 C 130.097656 322.445312 129.800781 322.277344 129.523438 322.074219 C 129.242188 321.875 128.984375 321.648438 128.746094 321.394531 C 128.507812 321.140625 128.296875 320.863281 128.109375 320.566406 C 127.921875 320.265625 127.765625 319.949219 127.636719 319.617188 C 127.507812 319.285156 127.410156 318.941406 127.347656 318.589844 C 127.28125 318.238281 127.246094 317.882812 127.246094 317.523438 C 127.246094 317.160156 127.28125 316.804688 127.347656 316.453125 C 127.410156 316.101562 127.507812 315.757812 127.636719 315.425781 C 127.765625 315.09375 127.921875 314.777344 128.109375 314.480469 C 128.296875 314.179688 128.507812 313.902344 128.746094 313.648438 C 128.984375 313.394531 129.242188 313.167969 129.523438 312.96875 C 129.800781 312.769531 130.097656 312.597656 130.40625 312.460938 C 130.71875 312.324219 131.039062 312.21875 131.367188 312.148438 C 131.699219 312.078125 132.03125 312.042969 132.367188 312.042969 Z M 132.367188 312.042969 " fill-opacity="1" fill-rule="evenodd"/><g clip-path="url(#018ef7d081)"><path fill="#4d4d4d" d="M 191.390625 327.113281 C 189.75 341.164062 177.804688 352.070312 163.3125 352.070312 C 148.816406 352.070312 136.878906 341.164062 135.238281 327.113281 Z M 191.390625 327.113281 " fill-opacity="1" fill-rule="evenodd"/></g></svg>