<svg xmlns="http://www.w3.org/2000/svg" xmlns:xlink="http://www.w3.org/1999/xlink" width="500" zoomAndPan="magnify" viewBox="0 0 375 374.999991" height="500" preserveAspectRatio="xMidYMid meet" version="1.0"><defs><g/><clipPath id="70498fe184"><path d="M 83 0.160156 L 120 0.160156 L 120 38 L 83 38 Z M 83 0.160156 " clip-rule="nonzero"/></clipPath><clipPath id="4ce6ac1ca6"><rect x="0" width="317" y="0" height="46"/></clipPath></defs><g transform="matrix(1, 0, 0, 1, 29, 164)"><g clip-path="url(#4ce6ac1ca6)"><g fill="#00429b" fill-opacity="1"><g transform="translate(1.210967, 36.451152)"><g><path d="M 24.90625 -18.34375 C 26.425781 -17.539062 27.609375 -16.421875 28.453125 -14.984375 C 29.296875 -13.546875 29.71875 -11.898438 29.71875 -10.046875 C 29.71875 -8.179688 29.226562 -6.488281 28.25 -4.96875 C 27.28125 -3.445312 25.957031 -2.238281 24.28125 -1.34375 C 22.601562 -0.445312 20.769531 0 18.78125 0 L 3.96875 0 L 3.96875 -34.796875 L 18.390625 -34.796875 C 20.378906 -34.796875 22.160156 -34.40625 23.734375 -33.625 C 25.304688 -32.84375 26.546875 -31.769531 27.453125 -30.40625 C 28.367188 -29.050781 28.828125 -27.53125 28.828125 -25.84375 C 28.828125 -24.351562 28.476562 -22.941406 27.78125 -21.609375 C 27.082031 -20.285156 26.125 -19.195312 24.90625 -18.34375 Z M 21.515625 -24.65625 C 21.515625 -25.75 21.164062 -26.640625 20.46875 -27.328125 C 19.78125 -28.023438 18.835938 -28.375 17.640625 -28.375 L 11.375 -28.375 L 11.375 -20.96875 L 17.640625 -20.96875 C 18.835938 -20.96875 19.78125 -21.316406 20.46875 -22.015625 C 21.164062 -22.710938 21.515625 -23.59375 21.515625 -24.65625 Z M 18.046875 -6.90625 C 19.304688 -6.90625 20.304688 -7.269531 21.046875 -8 C 21.796875 -8.726562 22.171875 -9.671875 22.171875 -10.828125 C 22.171875 -11.960938 21.796875 -12.894531 21.046875 -13.625 C 20.304688 -14.351562 19.304688 -14.71875 18.046875 -14.71875 L 11.375 -14.71875 L 11.375 -6.90625 Z M 18.046875 -6.90625 "/></g></g></g><g fill="#00429b" fill-opacity="1"><g transform="translate(33.118442, 36.451152)"><g><path d="M 23.109375 0 L 16.359375 -11.875 L 11.53125 -11.875 L 11.53125 0 L 3.96875 0 L 3.96875 -34.796875 L 18.046875 -34.796875 C 20.359375 -34.796875 22.425781 -34.296875 24.25 -33.296875 C 26.070312 -32.304688 27.515625 -30.945312 28.578125 -29.21875 C 29.640625 -27.5 30.171875 -25.515625 30.171875 -23.265625 C 30.171875 -21.003906 29.597656 -18.988281 28.453125 -17.21875 C 27.304688 -15.445312 25.773438 -14.097656 23.859375 -13.171875 L 31.5625 0 Z M 11.53125 -27.828125 L 11.53125 -18.84375 L 17.546875 -18.84375 C 19.097656 -18.84375 20.320312 -19.265625 21.21875 -20.109375 C 22.113281 -20.953125 22.5625 -22.019531 22.5625 -23.3125 C 22.5625 -24.632812 22.113281 -25.71875 21.21875 -26.5625 C 20.320312 -27.40625 19.097656 -27.828125 17.546875 -27.828125 Z M 11.53125 -27.828125 "/></g></g></g><g fill="#00429b" fill-opacity="1"><g transform="translate(65.970219, 36.451152)"><g><path d="M 3.96875 0 L 3.96875 -34.796875 L 11.53125 -34.796875 L 11.53125 0 Z M 3.96875 0 "/></g></g></g><g clip-path="url(#70498fe184)"><g fill="#00429b" fill-opacity="1"><g transform="translate(81.47666, 36.451152)"><g><path d="M 19.234375 -18.1875 L 37.78125 -18.1875 C 37.738281 -15.4375 37.285156 -12.910156 36.421875 -10.609375 C 35.566406 -8.304688 34.351562 -6.3125 32.78125 -4.625 C 31.207031 -2.9375 29.332031 -1.617188 27.15625 -0.671875 C 24.988281 0.273438 22.597656 0.75 19.984375 0.75 C 17.429688 0.75 15.0625 0.300781 12.875 -0.59375 C 10.6875 -1.488281 8.769531 -2.75 7.125 -4.375 C 5.488281 -6 4.222656 -7.921875 3.328125 -10.140625 C 2.429688 -12.359375 1.984375 -14.757812 1.984375 -17.34375 C 1.984375 -19.957031 2.421875 -22.367188 3.296875 -24.578125 C 4.179688 -26.785156 5.425781 -28.707031 7.03125 -30.34375 C 8.632812 -31.976562 10.53125 -33.25 12.71875 -34.15625 C 14.90625 -35.070312 17.273438 -35.53125 19.828125 -35.53125 C 22.710938 -35.53125 25.378906 -34.96875 27.828125 -33.84375 C 30.285156 -32.71875 32.34375 -31.160156 34 -29.171875 C 35.65625 -27.179688 36.75 -24.878906 37.28125 -22.265625 L 29.53125 -22.265625 C 28.800781 -24.148438 27.570312 -25.640625 25.84375 -26.734375 C 24.125 -27.828125 22.171875 -28.375 19.984375 -28.375 C 17.929688 -28.375 16.125 -27.898438 14.5625 -26.953125 C 13.007812 -26.015625 11.789062 -24.722656 10.90625 -23.078125 C 10.03125 -21.441406 9.59375 -19.53125 9.59375 -17.34375 C 9.59375 -15.1875 10.019531 -13.285156 10.875 -11.640625 C 11.738281 -10.003906 12.945312 -8.722656 14.5 -7.796875 C 16.0625 -6.867188 17.890625 -6.40625 19.984375 -6.40625 C 22.234375 -6.40625 24.253906 -6.953125 26.046875 -8.046875 C 27.835938 -9.140625 29.046875 -10.582031 29.671875 -12.375 L 19.234375 -12.375 Z M 19.234375 -18.1875 "/></g></g></g></g><g fill="#00429b" fill-opacity="1"><g transform="translate(121.087648, 36.451152)"><g><path d="M 24.609375 -34.796875 L 32.109375 -34.796875 L 32.109375 0 L 24.609375 0 L 24.609375 -14.359375 L 11.53125 -14.359375 L 11.53125 0 L 3.96875 0 L 3.96875 -34.796875 L 11.53125 -34.796875 L 11.53125 -21.375 L 24.609375 -21.375 Z M 24.609375 -34.796875 "/></g></g></g><g fill="#00429b" fill-opacity="1"><g transform="translate(157.219634, 36.451152)"><g><path d="M 27.984375 -34.796875 L 27.984375 -27.78125 L 18.296875 -27.78125 L 18.296875 0 L 10.734375 0 L 10.734375 -27.78125 L 1.09375 -27.78125 L 1.09375 -34.796875 Z M 27.984375 -34.796875 "/></g></g></g><g fill="#00429b" fill-opacity="1"><g transform="translate(186.244496, 36.451152)"><g><path d="M 3.03125 -10.4375 L 3.03125 -17.453125 L 19.28125 -17.453125 L 19.28125 -10.4375 Z M 3.03125 -10.4375 "/></g></g></g><g fill="#00429b" fill-opacity="1"><g transform="translate(208.559842, 36.451152)"><g><path d="M 24.90625 -18.34375 C 26.425781 -17.539062 27.609375 -16.421875 28.453125 -14.984375 C 29.296875 -13.546875 29.71875 -11.898438 29.71875 -10.046875 C 29.71875 -8.179688 29.226562 -6.488281 28.25 -4.96875 C 27.28125 -3.445312 25.957031 -2.238281 24.28125 -1.34375 C 22.601562 -0.445312 20.769531 0 18.78125 0 L 3.96875 0 L 3.96875 -34.796875 L 18.390625 -34.796875 C 20.378906 -34.796875 22.160156 -34.40625 23.734375 -33.625 C 25.304688 -32.84375 26.546875 -31.769531 27.453125 -30.40625 C 28.367188 -29.050781 28.828125 -27.53125 28.828125 -25.84375 C 28.828125 -24.351562 28.476562 -22.941406 27.78125 -21.609375 C 27.082031 -20.285156 26.125 -19.195312 24.90625 -18.34375 Z M 21.515625 -24.65625 C 21.515625 -25.75 21.164062 -26.640625 20.46875 -27.328125 C 19.78125 -28.023438 18.835938 -28.375 17.640625 -28.375 L 11.375 -28.375 L 11.375 -20.96875 L 17.640625 -20.96875 C 18.835938 -20.96875 19.78125 -21.316406 20.46875 -22.015625 C 21.164062 -22.710938 21.515625 -23.59375 21.515625 -24.65625 Z M 18.046875 -6.90625 C 19.304688 -6.90625 20.304688 -7.269531 21.046875 -8 C 21.796875 -8.726562 22.171875 -9.671875 22.171875 -10.828125 C 22.171875 -11.960938 21.796875 -12.894531 21.046875 -13.625 C 20.304688 -14.351562 19.304688 -14.71875 18.046875 -14.71875 L 11.375 -14.71875 L 11.375 -6.90625 Z M 18.046875 -6.90625 "/></g></g></g><g fill="#00429b" fill-opacity="1"><g transform="translate(240.46733, 36.451152)"><g><path d="M 3.96875 0 L 3.96875 -34.796875 L 11.53125 -34.796875 L 11.53125 0 Z M 3.96875 0 "/></g></g></g><g fill="#00429b" fill-opacity="1"><g transform="translate(255.973771, 36.451152)"><g><path d="M 27.984375 -34.796875 L 27.984375 -27.78125 L 18.296875 -27.78125 L 18.296875 0 L 10.734375 0 L 10.734375 -27.78125 L 1.09375 -27.78125 L 1.09375 -34.796875 Z M 27.984375 -34.796875 "/></g></g></g><g fill="#00429b" fill-opacity="1"><g transform="translate(284.998606, 36.451152)"><g><path d="M 15.5 0.703125 C 12.851562 0.703125 10.519531 0.222656 8.5 -0.734375 C 6.476562 -1.703125 4.894531 -3.082031 3.75 -4.875 C 2.601562 -6.664062 2.03125 -8.800781 2.03125 -11.28125 L 9.640625 -11.28125 C 9.640625 -9.59375 10.226562 -8.34375 11.40625 -7.53125 C 12.582031 -6.71875 13.929688 -6.3125 15.453125 -6.3125 C 16.421875 -6.3125 17.328125 -6.46875 18.171875 -6.78125 C 19.015625 -7.09375 19.707031 -7.554688 20.25 -8.171875 C 20.800781 -8.785156 21.078125 -9.523438 21.078125 -10.390625 C 21.078125 -11.285156 20.757812 -11.988281 20.125 -12.5 C 19.5 -13.007812 18.65625 -13.429688 17.59375 -13.765625 C 16.53125 -14.097656 15.367188 -14.414062 14.109375 -14.71875 C 12.816406 -15.007812 11.492188 -15.367188 10.140625 -15.796875 C 8.785156 -16.234375 7.523438 -16.804688 6.359375 -17.515625 C 5.203125 -18.234375 4.273438 -19.195312 3.578125 -20.40625 C 2.878906 -21.613281 2.53125 -23.144531 2.53125 -25 C 2.53125 -28.34375 3.664062 -30.914062 5.9375 -32.71875 C 8.207031 -34.53125 11.28125 -35.4375 15.15625 -35.4375 C 19.132812 -35.4375 22.21875 -34.429688 24.40625 -32.421875 C 26.59375 -30.421875 27.6875 -27.695312 27.6875 -24.25 L 20.234375 -24.25 C 20.234375 -25.738281 19.703125 -26.835938 18.640625 -27.546875 C 17.578125 -28.265625 16.347656 -28.625 14.953125 -28.625 C 13.734375 -28.625 12.609375 -28.359375 11.578125 -27.828125 C 10.554688 -27.296875 10.046875 -26.46875 10.046875 -25.34375 C 10.046875 -24.519531 10.347656 -23.867188 10.953125 -23.390625 C 11.566406 -22.910156 12.378906 -22.507812 13.390625 -22.1875 C 14.398438 -21.875 15.519531 -21.566406 16.75 -21.265625 C 18.070312 -20.941406 19.425781 -20.554688 20.8125 -20.109375 C 22.207031 -19.660156 23.5 -19.050781 24.6875 -18.28125 C 25.882812 -17.519531 26.859375 -16.507812 27.609375 -15.25 C 28.359375 -14 28.734375 -12.410156 28.734375 -10.484375 C 28.734375 -7.960938 28.125 -5.875 26.90625 -4.21875 C 25.695312 -2.5625 24.097656 -1.328125 22.109375 -0.515625 C 20.128906 0.296875 17.925781 0.703125 15.5 0.703125 Z M 15.5 0.703125 "/></g></g></g></g></g></svg>