<svg xmlns="http://www.w3.org/2000/svg" xmlns:xlink="http://www.w3.org/1999/xlink" width="500" zoomAndPan="magnify" viewBox="0 0 375 374.999991" height="500" preserveAspectRatio="xMidYMid meet" version="1.0"><defs><clipPath id="689e15f07b"><path d="M 112.5 129.148438 L 262 129.148438 L 262 245.398438 L 112.5 245.398438 Z M 112.5 129.148438 " clip-rule="nonzero"/></clipPath></defs><g clip-path="url(#689e15f07b)"><path fill="#000000" d="M 250.804688 164.269531 C 250.195312 159.746094 250.113281 151.941406 254.320312 149.328125 C 254.390625 149.28125 254.449219 149.210938 254.519531 149.152344 C 257.953125 148.050781 260.332031 146.503906 258.46875 144.429688 L 207.75 129.148438 L 125.636719 140.5625 C 125.636719 140.5625 116.238281 141.910156 117.070312 156.523438 C 117.527344 164.46875 120.023438 168.371094 122.203125 170.292969 L 115.464844 172.332031 C 113.601562 174.40625 115.980469 175.941406 119.414062 177.042969 C 119.484375 177.101562 119.53125 177.171875 119.613281 177.21875 C 123.808594 179.84375 123.726562 187.636719 123.128906 192.171875 C 108.035156 196.449219 113.449219 197.855469 113.449219 197.855469 L 116.765625 198.652344 C 114.433594 200.761719 112.113281 204.746094 112.558594 212.316406 C 113.390625 226.929688 121.113281 227.9375 121.113281 227.9375 L 174.855469 245.398438 L 255.960938 225.757812 C 255.960938 225.757812 261.375 224.351562 246.28125 220.0625 C 245.671875 215.550781 245.589844 207.746094 249.796875 205.121094 C 249.878906 205.074219 249.925781 205.003906 249.996094 204.945312 C 253.429688 203.84375 255.808594 202.308594 253.945312 200.234375 L 250.417969 199.167969 C 252.773438 197.75 256.300781 194.046875 256.851562 184.414062 C 257.238281 177.804688 255.503906 173.925781 253.511719 171.640625 L 260.472656 169.953125 C 260.472656 169.953125 265.898438 168.558594 250.804688 164.269531 Z M 182.964844 164.082031 L 196.59375 161.28125 L 242.695312 151.800781 L 249.5625 150.394531 C 247.359375 154.414062 247.453125 159.910156 247.816406 163.4375 C 247.898438 164.234375 247.992188 164.960938 248.074219 165.523438 L 240.5625 167.386719 L 182.390625 181.859375 Z M 124.371094 178.296875 L 131.238281 179.703125 L 175.5 188.808594 L 179.367188 189.605469 L 190.96875 191.984375 L 191.53125 209.761719 L 131.742188 194.890625 L 125.847656 193.425781 C 125.941406 192.863281 126.023438 192.136719 126.117188 191.339844 C 126.46875 187.8125 126.5625 182.316406 124.371094 178.296875 Z M 121.699219 155.820312 C 121.617188 151.929688 122.308594 149.117188 123.714844 147.6875 C 124.605469 146.773438 125.660156 146.585938 126.375 146.585938 C 126.761719 146.585938 127.03125 146.644531 127.054688 146.644531 L 162.433594 158.175781 L 180.082031 163.929688 L 179.507812 181.835938 L 129.984375 167.949219 L 127.371094 167.222656 C 127.277344 167.199219 127.136719 167.175781 127.042969 167.175781 C 126.832031 167.152344 121.945312 166.707031 121.699219 155.820312 Z M 174.984375 237.640625 L 122.847656 223.027344 C 122.753906 222.992188 122.625 222.980469 122.519531 222.96875 C 122.308594 222.957031 117.410156 222.511719 117.175781 211.625 C 117.09375 207.734375 117.785156 204.921875 119.191406 203.492188 C 120.082031 202.578125 121.125 202.390625 121.851562 202.390625 C 122.226562 202.390625 122.507812 202.449219 122.519531 202.449219 C 122.519531 202.449219 122.53125 202.449219 122.519531 202.449219 L 175.558594 219.734375 Z M 243.292969 219.242188 C 243.375 220.039062 243.46875 220.765625 243.550781 221.328125 L 177.867188 237.664062 L 178.429688 219.886719 L 192.480469 216.992188 L 194.554688 217.496094 L 202.324219 214.976562 L 238.160156 207.605469 L 245.027344 206.199219 C 242.835938 210.207031 242.929688 215.703125 243.292969 219.242188 Z M 246.914062 195.066406 C 246.796875 195.078125 246.667969 195.089844 246.5625 195.125 L 241.605469 196.519531 L 194.425781 209.738281 L 193.851562 191.832031 L 209.332031 186.78125 L 246.808594 174.558594 C 246.808594 174.558594 248.777344 174.125 250.21875 175.589844 C 251.613281 177.019531 252.316406 179.832031 252.234375 183.722656 C 251.988281 194.609375 247.089844 195.054688 246.914062 195.066406 Z M 246.914062 195.066406 " fill-opacity="1" fill-rule="nonzero"/></g></svg>