<svg xmlns="http://www.w3.org/2000/svg" xmlns:xlink="http://www.w3.org/1999/xlink" width="500" zoomAndPan="magnify" viewBox="0 0 375 374.999991" height="500" preserveAspectRatio="xMidYMid meet" version="1.0"><defs><clipPath id="f24ac2edff"><path d="M 143 166 L 238 166 L 238 262.125 L 143 262.125 Z M 143 166 " clip-rule="nonzero"/></clipPath><clipPath id="7be9b19935"><path d="M 112.5 187 L 160 187 L 160 232 L 112.5 232 Z M 112.5 187 " clip-rule="nonzero"/></clipPath><clipPath id="726c7a9e09"><path d="M 140 211 L 188 211 L 188 262.125 L 140 262.125 Z M 140 211 " clip-rule="nonzero"/></clipPath><clipPath id="e195ad955a"><path d="M 223 188 L 262.5 188 L 262.5 234 L 223 234 Z M 223 188 " clip-rule="nonzero"/></clipPath><clipPath id="6c5cfd5f29"><path d="M 184 112.875 L 191 112.875 L 191 126 L 184 126 Z M 184 112.875 " clip-rule="nonzero"/></clipPath></defs><path fill="#000000" d="M 219.496094 194.78125 C 214.558594 194.78125 210.539062 190.761719 210.539062 185.824219 C 210.539062 183.425781 211.46875 181.179688 213.164062 179.492188 L 213.539062 179.113281 L 217.160156 182.734375 L 216.78125 183.113281 C 216.058594 183.835938 215.65625 184.800781 215.65625 185.828125 C 215.65625 187.945312 217.378906 189.667969 219.496094 189.667969 C 220.523438 189.667969 221.484375 189.265625 222.207031 188.542969 L 229.890625 180.863281 C 230.613281 180.136719 231.015625 179.171875 231.015625 178.144531 C 231.015625 176.03125 229.292969 174.308594 227.175781 174.308594 C 226.417969 174.308594 225.6875 174.527344 225.0625 174.945312 L 222.230469 170.679688 C 223.695312 169.707031 225.40625 169.1875 227.175781 169.1875 C 232.117188 169.1875 236.132812 173.207031 236.132812 178.144531 C 236.132812 180.539062 235.203125 182.789062 233.511719 184.480469 L 225.832031 192.160156 C 224.144531 193.851562 221.894531 194.78125 219.5 194.78125 Z M 219.496094 194.78125 " fill-opacity="1" fill-rule="nonzero"/><path fill="#000000" d="M 179.171875 160.730469 L 172.210938 153.765625 C 170.515625 152.078125 169.585938 149.828125 169.585938 147.433594 C 169.585938 142.496094 173.605469 138.476562 178.542969 138.476562 C 180.941406 138.476562 183.191406 139.410156 184.878906 141.105469 L 193.148438 149.375 L 189.527344 152.996094 L 181.253906 144.722656 C 180.53125 143.996094 179.566406 143.59375 178.539062 143.59375 C 176.425781 143.59375 174.703125 145.316406 174.703125 147.433594 C 174.703125 148.460938 175.101562 149.421875 175.824219 150.144531 L 182.792969 157.113281 L 179.171875 160.734375 Z M 179.171875 160.730469 " fill-opacity="1" fill-rule="nonzero"/><g clip-path="url(#f24ac2edff)"><path fill="#000000" d="M 232.949219 262.136719 L 199.035156 217.820312 L 196.300781 217.820312 C 187.414062 217.820312 179.058594 214.359375 172.773438 208.074219 L 146.617188 181.921875 C 144.921875 180.234375 143.992188 177.984375 143.992188 175.589844 C 143.992188 170.652344 148.011719 166.632812 152.949219 166.632812 C 154.773438 166.632812 156.441406 167.136719 157.914062 168.128906 L 155.042969 172.371094 C 154.425781 171.953125 153.742188 171.75 152.949219 171.75 C 150.832031 171.75 149.109375 173.472656 149.109375 175.589844 C 149.109375 176.617188 149.511719 177.578125 150.234375 178.300781 L 176.394531 204.457031 C 181.710938 209.773438 188.78125 212.703125 196.300781 212.703125 L 201.566406 212.703125 L 237.011719 259.027344 Z M 232.949219 262.136719 " fill-opacity="1" fill-rule="nonzero"/></g><g clip-path="url(#7be9b19935)"><path fill="#000000" d="M 112.496094 227.667969 L 155.839844 187.390625 L 159.324219 191.140625 L 115.980469 231.417969 Z M 112.496094 227.667969 " fill-opacity="1" fill-rule="nonzero"/></g><g clip-path="url(#726c7a9e09)"><path fill="#000000" d="M 144.867188 262.070312 L 140.632812 259.195312 L 170.4375 215.257812 L 173.089844 215.257812 C 176.84375 215.257812 182.015625 213.664062 185.117188 211.550781 L 187.996094 215.789062 C 184.105469 218.433594 177.875 220.359375 173.152344 220.375 Z M 144.867188 262.070312 " fill-opacity="1" fill-rule="nonzero"/></g><g clip-path="url(#e195ad955a)"><path fill="#000000" d="M 259.027344 233.953125 L 227.476562 204.824219 C 224.847656 202.414062 223.335938 198.976562 223.335938 195.398438 L 223.335938 188.472656 L 228.457031 188.472656 L 228.457031 195.398438 C 228.457031 197.546875 229.363281 199.609375 230.945312 201.058594 L 262.5 230.195312 Z M 259.027344 233.953125 " fill-opacity="1" fill-rule="nonzero"/></g><path fill="#000000" d="M 238.1875 149.960938 L 252.296875 142.921875 L 254.578125 147.5 L 240.46875 154.539062 Z M 238.1875 149.960938 " fill-opacity="1" fill-rule="nonzero"/><path fill="#000000" d="M 217.410156 128.703125 L 224.914062 117.324219 L 229.1875 120.144531 L 221.683594 131.523438 Z M 217.410156 128.703125 " fill-opacity="1" fill-rule="nonzero"/><path fill="#000000" d="M 120.429688 147.488281 L 122.710938 142.910156 L 136.820312 149.949219 L 134.539062 154.527344 Z M 120.429688 147.488281 " fill-opacity="1" fill-rule="nonzero"/><path fill="#000000" d="M 145.816406 120.148438 L 150.089844 117.324219 L 157.597656 128.699219 L 153.324219 131.519531 Z M 145.816406 120.148438 " fill-opacity="1" fill-rule="nonzero"/><g clip-path="url(#6c5cfd5f29)"><path fill="#000000" d="M 184.945312 112.878906 L 190.0625 112.878906 L 190.0625 125.679688 L 184.945312 125.679688 Z M 184.945312 112.878906 " fill-opacity="1" fill-rule="nonzero"/></g><path fill="#000000" d="M 163.730469 181.121094 L 154.292969 171.679688 C 152.601562 169.992188 151.667969 167.742188 151.667969 165.347656 C 151.667969 160.410156 155.6875 156.390625 160.625 156.390625 C 162.394531 156.390625 164.109375 156.90625 165.574219 157.882812 L 162.738281 162.144531 C 162.113281 161.730469 161.382812 161.507812 160.625 161.507812 C 158.511719 161.507812 156.789062 163.230469 156.789062 165.347656 C 156.789062 166.375 157.1875 167.335938 157.910156 168.058594 L 167.351562 177.503906 Z M 163.730469 181.121094 " fill-opacity="1" fill-rule="nonzero"/><path fill="#000000" d="M 171.46875 170.941406 L 161.972656 161.445312 C 160.28125 159.757812 159.347656 157.507812 159.347656 155.113281 C 159.347656 150.175781 163.367188 146.15625 168.304688 146.15625 C 170.824219 146.15625 173.125 147.15625 174.957031 149.046875 L 171.285156 152.609375 C 170.410156 151.710938 169.4375 151.273438 168.308594 151.273438 C 166.191406 151.273438 164.46875 152.996094 164.46875 155.113281 C 164.46875 156.140625 164.867188 157.101562 165.59375 157.824219 L 175.089844 167.324219 Z M 171.46875 170.941406 " fill-opacity="1" fill-rule="nonzero"/><path fill="#000000" d="M 193.902344 166.628906 C 188.964844 166.628906 184.945312 162.609375 184.945312 157.671875 C 184.945312 155.277344 185.875 153.027344 187.570312 151.339844 L 197.808594 141.101562 C 199.496094 139.410156 201.742188 138.476562 204.140625 138.476562 C 209.078125 138.476562 213.097656 142.496094 213.097656 147.433594 C 213.097656 149.832031 212.164062 152.082031 210.46875 153.769531 L 200.234375 164.003906 C 198.542969 165.695312 196.292969 166.628906 193.902344 166.628906 Z M 204.140625 143.59375 C 203.113281 143.59375 202.152344 143.992188 201.425781 144.714844 L 191.1875 154.957031 C 190.460938 155.679688 190.0625 156.644531 190.0625 157.671875 C 190.0625 159.789062 191.78125 161.507812 193.898438 161.507812 C 194.925781 161.507812 195.886719 161.109375 196.613281 160.382812 L 206.851562 150.144531 C 207.574219 149.421875 207.976562 148.457031 207.976562 147.429688 C 207.976562 145.316406 206.253906 143.59375 204.140625 143.59375 Z M 204.140625 143.59375 " fill-opacity="1" fill-rule="nonzero"/><path fill="#000000" d="M 204.140625 174.304688 C 199.203125 174.304688 195.183594 170.285156 195.183594 165.347656 C 195.183594 163.574219 195.699219 161.859375 196.679688 160.386719 L 200.941406 163.222656 C 200.523438 163.855469 200.300781 164.589844 200.300781 165.347656 C 200.300781 167.464844 202.023438 169.1875 204.140625 169.1875 C 205.167969 169.1875 206.128906 168.789062 206.851562 168.0625 L 217.09375 157.824219 C 217.816406 157.097656 218.21875 156.132812 218.21875 155.109375 C 218.21875 152.992188 216.496094 151.269531 214.378906 151.269531 C 213.355469 151.269531 212.390625 151.667969 211.664062 152.394531 L 211.277344 152.785156 L 207.65625 149.164062 L 208.042969 148.773438 C 209.738281 147.082031 211.988281 146.152344 214.375 146.152344 C 219.3125 146.152344 223.332031 150.171875 223.332031 155.109375 C 223.332031 157.5 222.402344 159.75 220.710938 161.441406 L 210.472656 171.679688 C 208.785156 173.371094 206.535156 174.300781 204.140625 174.300781 Z M 204.140625 174.304688 " fill-opacity="1" fill-rule="nonzero"/><path fill="#000000" d="M 211.820312 184.546875 C 206.882812 184.546875 202.863281 180.527344 202.863281 175.589844 C 202.863281 173.191406 203.792969 170.941406 205.488281 169.253906 L 205.863281 168.878906 L 209.484375 172.496094 L 209.105469 172.875 C 208.382812 173.601562 207.980469 174.5625 207.980469 175.589844 C 207.980469 177.707031 209.703125 179.429688 211.820312 179.429688 C 212.847656 179.429688 213.808594 179.03125 214.53125 178.304688 L 224.769531 168.066406 C 225.496094 167.339844 225.898438 166.375 225.898438 165.351562 C 225.898438 163.234375 224.175781 161.511719 222.058594 161.511719 C 221.300781 161.511719 220.566406 161.734375 219.9375 162.148438 L 217.113281 157.878906 C 218.582031 156.90625 220.292969 156.390625 222.058594 156.390625 C 226.996094 156.390625 231.015625 160.410156 231.015625 165.347656 C 231.015625 167.742188 230.085938 169.992188 228.390625 171.679688 L 218.152344 181.917969 C 216.464844 183.609375 214.21875 184.542969 211.820312 184.542969 Z M 211.820312 184.546875 " fill-opacity="1" fill-rule="nonzero"/></svg>