<svg xmlns="http://www.w3.org/2000/svg" xmlns:xlink="http://www.w3.org/1999/xlink" width="500" zoomAndPan="magnify" viewBox="0 0 375 374.999991" height="500" preserveAspectRatio="xMidYMid meet" version="1.0"><defs><clipPath id="568530e178"><path d="M 150 112.5 L 224 112.5 L 224 186 L 150 186 Z M 150 112.5 " clip-rule="nonzero"/></clipPath><clipPath id="780ed1ad21"><path d="M 117.953125 189 L 256.703125 189 L 256.703125 262.5 L 117.953125 262.5 Z M 117.953125 189 " clip-rule="nonzero"/></clipPath></defs><g clip-path="url(#568530e178)"><path fill="#231f20" d="M 187.328125 112.542969 C 188.523438 112.542969 189.71875 112.601562 190.910156 112.71875 C 192.101562 112.835938 193.285156 113.011719 194.460938 113.246094 C 195.632812 113.480469 196.792969 113.773438 197.9375 114.121094 C 199.085938 114.46875 200.210938 114.875 201.316406 115.332031 C 202.421875 115.792969 203.503906 116.304688 204.558594 116.871094 C 205.617188 117.4375 206.640625 118.050781 207.636719 118.71875 C 208.632812 119.386719 209.59375 120.097656 210.515625 120.859375 C 211.441406 121.621094 212.328125 122.425781 213.175781 123.277344 C 214.023438 124.125 214.824219 125.011719 215.585938 125.941406 C 216.34375 126.867188 217.054688 127.832031 217.722656 128.828125 C 218.386719 129.828125 219 130.855469 219.566406 131.914062 C 220.128906 132.972656 220.640625 134.054688 221.097656 135.164062 C 221.558594 136.273438 221.960938 137.402344 222.308594 138.550781 C 222.65625 139.699219 222.945312 140.859375 223.179688 142.039062 C 223.414062 143.214844 223.589844 144.402344 223.707031 145.59375 C 223.824219 146.789062 223.882812 147.988281 223.882812 149.1875 C 223.882812 150.386719 223.824219 151.582031 223.707031 152.777344 C 223.589844 153.972656 223.414062 155.160156 223.179688 156.335938 C 222.945312 157.511719 222.65625 158.675781 222.308594 159.824219 C 221.960938 160.972656 221.558594 162.101562 221.097656 163.210938 C 220.640625 164.316406 220.128906 165.402344 219.566406 166.460938 C 219 167.519531 218.386719 168.546875 217.722656 169.542969 C 217.054688 170.542969 216.34375 171.503906 215.585938 172.433594 C 214.824219 173.359375 214.023438 174.25 213.175781 175.097656 C 212.328125 175.945312 211.441406 176.75 210.515625 177.511719 C 209.59375 178.273438 208.632812 178.988281 207.636719 179.65625 C 206.640625 180.320312 205.613281 180.9375 204.558594 181.503906 C 203.503906 182.070312 202.421875 182.582031 201.316406 183.039062 C 200.210938 183.5 199.085938 183.902344 197.9375 184.253906 C 196.792969 184.601562 195.632812 184.890625 194.460938 185.125 C 193.285156 185.359375 192.101562 185.535156 190.910156 185.652344 C 189.71875 185.769531 188.523438 185.828125 187.328125 185.828125 C 186.132812 185.828125 184.9375 185.769531 183.746094 185.652344 C 182.554688 185.535156 181.371094 185.359375 180.195312 185.125 C 179.023438 184.890625 177.863281 184.601562 176.71875 184.253906 C 175.570312 183.902344 174.445312 183.5 173.339844 183.039062 C 172.234375 182.582031 171.152344 182.070312 170.097656 181.503906 C 169.039062 180.9375 168.015625 180.320312 167.019531 179.65625 C 166.023438 178.988281 165.0625 178.273438 164.136719 177.511719 C 163.214844 176.75 162.328125 175.945312 161.480469 175.097656 C 160.632812 174.25 159.832031 173.359375 159.070312 172.433594 C 158.3125 171.503906 157.601562 170.542969 156.933594 169.542969 C 156.269531 168.546875 155.65625 167.519531 155.089844 166.460938 C 154.527344 165.402344 154.015625 164.316406 153.558594 163.210938 C 153.097656 162.101562 152.695312 160.972656 152.347656 159.824219 C 152 158.675781 151.710938 157.511719 151.476562 156.335938 C 151.242188 155.160156 151.066406 153.972656 150.949219 152.777344 C 150.832031 151.582031 150.773438 150.386719 150.773438 149.1875 C 150.773438 147.988281 150.832031 146.789062 150.949219 145.59375 C 151.066406 144.402344 151.242188 143.214844 151.476562 142.039062 C 151.710938 140.859375 152 139.699219 152.347656 138.550781 C 152.695312 137.402344 153.097656 136.273438 153.558594 135.164062 C 154.015625 134.054688 154.527344 132.972656 155.089844 131.914062 C 155.65625 130.855469 156.269531 129.828125 156.933594 128.828125 C 157.601562 127.832031 158.3125 126.867188 159.070312 125.941406 C 159.832031 125.011719 160.632812 124.125 161.480469 123.277344 C 162.328125 122.425781 163.214844 121.621094 164.136719 120.859375 C 165.0625 120.097656 166.023438 119.386719 167.019531 118.71875 C 168.015625 118.050781 169.039062 117.4375 170.097656 116.871094 C 171.152344 116.304688 172.234375 115.792969 173.339844 115.332031 C 174.445312 114.875 175.570312 114.46875 176.71875 114.121094 C 177.863281 113.773438 179.023438 113.480469 180.195312 113.246094 C 181.371094 113.011719 182.554688 112.835938 183.746094 112.71875 C 184.9375 112.601562 186.132812 112.542969 187.328125 112.542969 Z M 187.328125 112.542969 " fill-opacity="1" fill-rule="nonzero"/></g><g clip-path="url(#780ed1ad21)"><path fill="#231f20" d="M 254.285156 231.492188 C 254.285156 231.492188 254.230469 231.390625 254.230469 231.390625 C 254.1875 231.3125 254.144531 231.230469 254.097656 231.148438 L 236.292969 198.160156 C 233.433594 192.871094 227.917969 189.574219 221.917969 189.574219 L 152.734375 189.574219 C 146.738281 189.574219 141.21875 192.871094 138.363281 198.160156 L 120.554688 231.148438 C 120.507812 231.230469 120.46875 231.3125 120.421875 231.390625 L 120.367188 231.492188 C 118.796875 234.5 117.953125 237.867188 117.953125 241.3125 C 117.953125 251.9375 125.773438 260.730469 135.957031 262.230469 C 136.777344 262.375 137.621094 262.457031 138.480469 262.457031 L 236.890625 262.457031 C 238.917969 262.457031 240.84375 262.03125 242.589844 261.265625 C 250.808594 258.375 256.703125 250.535156 256.703125 241.3125 C 256.703125 237.867188 255.859375 234.503906 254.289062 231.492188 Z M 228.097656 233.851562 L 219.3125 233.851562 C 211.433594 233.851562 205.042969 240.257812 205.042969 248.15625 C 205.042969 248.652344 205.070312 249.148438 205.121094 249.632812 C 199.832031 251.757812 193.832031 254.957031 187.328125 259.765625 C 187.328125 259.765625 180.195312 254.257812 170.179688 250.167969 C 170.273438 249.511719 170.324219 248.839844 170.324219 248.15625 C 170.324219 240.257812 163.933594 233.851562 156.054688 233.851562 L 146.554688 233.851562 L 146.554688 201.257812 C 146.554688 201.257812 173.570312 200.78125 187.328125 215.023438 C 187.328125 215.023438 209.191406 198.917969 228.097656 201.257812 Z M 228.097656 233.851562 " fill-opacity="1" fill-rule="nonzero"/></g></svg>